<svg version="1.1" id="Capa_1" xmlns="http://www.w3.org/2000/svg" xmlns:xlink="http://www.w3.org/1999/xlink" x="0px" y="0px" width="40px" height="40px" viewBox="0 0 40 40">
<g>
	<path fill="#1877F2" d="M20,0.083c-11.045,0-20,8.955-20,20c0,9.907,7.21,18.111,16.665,19.7V24.256H11.84v-5.587h4.825v-4.12
		c0-4.781,2.92-7.386,7.185-7.386c2.043,0,3.798,0.152,4.308,0.219v4.997l-2.958,0.001c-2.319,0-2.766,1.102-2.766,2.719v3.566
		h5.533l-0.723,5.587h-4.811v15.664C32.328,38.713,40,30.299,40,20.078C40,9.038,31.045,0.083,20,0.083z"/>
</g>
</svg>
