<?xml version="1.0" encoding="utf-8"?>
<!-- Generator: Adobe Illustrator 22.0.1, SVG Export Plug-In . SVG Version: 6.00 Build 0)  -->
<svg version="1.1" id="圖層_1" xmlns="http://www.w3.org/2000/svg" xmlns:xlink="http://www.w3.org/1999/xlink" x="0px" y="0px"
	 viewBox="0 0 500 500" style="enable-background:new 0 0 500 500;" xml:space="preserve">
<g>
	<path d="M250.5,200.2c-27.9,0-50.6,22.6-50.6,50.6c0,27.9,22.6,50.6,50.6,50.6s50.6-22.6,50.6-50.6
		C301.1,222.8,278.4,200.2,250.5,200.2z"/>
	<path d="M374,189.4c-3.2-70.2-56.1-63.1-123.5-63.1l-0.6-0.4c-40.6,0-45.3,0.2-61.5,0.8c-70.2,3.6-63,54-63,123.9
		c0,51.7-3.9,85.8,17.5,107c18.5,18.6,43.9,17.6,107.2,17.6c61.5,0,88,1.7,107.2-17.4c18.8-18.9,17.6-44.4,17.6-107
		C374.9,210.2,374.8,205.4,374,189.4z M250.5,328.7c-43,0-77.9-34.9-77.9-77.9c0-43,34.9-77.9,77.9-77.9c43,0,77.9,34.9,77.9,77.9
		C328.4,293.8,293.5,328.7,250.5,328.7z M331.5,188c-10.1,0-18.2-8.2-18.2-18.2s8.2-18.2,18.2-18.2c10.1,0,18.2,8.2,18.2,18.2
		S341.6,188,331.5,188z"/>
	<path d="M250.4,0.8c-138.1,0-250,111.9-250,250s111.9,250,250,250s250-111.9,250-250S388.5,0.8,250.4,0.8z M401.3,313.3
		c-2.1,45.2-23.3,70.3-51.5,81.2c-20.7,8-40.9,8-99.4,8c-57,0-97,3.8-126.3-25.5c-28.8-28.8-25.5-67.2-25.5-126.3
		c0-57.7-3.7-97.1,25.5-126.3c17.5-17.5,39.2-23.4,63.7-24.6c28-1.2,97.2-1.3,125.1,0c57.2,2.6,85.8,35,88.3,88.3
		C402.6,216.2,402.7,285.4,401.3,313.3z"/>
</g>
</svg>
