<svg version="1.1" xmlns="http://www.w3.org/2000/svg" xmlns:xlink="http://www.w3.org/1999/xlink" x="0px" y="0px" width="50px" height="50px" viewBox="0 0 50 50">
<g>
	<path fill="#17BF17" d="M24.75,0c-0.165,0.075-0.335,0.08-0.5,0C24.415,0,24.585,0,24.75,0z"/>
	<path fill="#17BF17" d="M25.75,0c-0.164,0.08-0.335,0.075-0.5,0C25.415,0,25.586,0,25.75,0z"/>
	<path fill="#17BF17" d="M0,24.25c0.08,0.165,0.075,0.335,0,0.5C0,24.585,0,24.415,0,24.25z"/>
	<path fill="#17BF17" d="M50,24.75c-0.074-0.165-0.08-0.335,0-0.5C50,24.415,50,24.585,50,24.75z"/>
	<path fill="#17BF17" d="M0,25.25c0.075,0.165,0.08,0.336,0,0.5C0,25.586,0,25.415,0,25.25z"/>
	<path fill="#17BF17" d="M50,25.75c-0.08-0.164-0.074-0.335,0-0.5C50,25.415,50,25.586,50,25.75z"/>
	<path fill="#17BF17" d="M24.25,50c0.165-0.08,0.335-0.074,0.5,0C24.585,50,24.415,50,24.25,50z"/>
	<path fill="#17BF17" d="M25.25,50c0.15-0.074,0.301-0.08,0.449,0C25.551,50,25.4,50,25.25,50z"/>
	<path fill="#7DDB7D" d="M50,24.05c-0.064-0.115-0.09-0.235,0-0.35C50,23.814,50,23.935,50,24.05z"/>
	<path fill="#92E092" d="M23.895,0.04c-0.1-0.01-0.21,0.064-0.295-0.04c0.1,0,0.2,0,0.3,0C23.935,0.015,23.93,0.03,23.895,0.04z"/>
	<path fill="#60D360" d="M23.895,0.04c0-0.016,0.006-0.03,0.006-0.04C24,0,24.1,0,24.2,0C24.11,0.08,24,0.045,23.895,0.04z"/>
	<path fill="#60D360" d="M26.105,0.04C26,0.045,25.896,0.08,25.801,0C25.9,0,26,0,26.102,0c0.02,0.01,0.023,0.015,0.02,0.024
		C26.115,0.035,26.109,0.04,26.105,0.04z"/>
	<path fill="#92E092" d="M26.105,0.04c0-0.016-0.006-0.03-0.006-0.04c0.1,0,0.2,0,0.301,0c0,0.015,0,0.03,0.004,0.045
		C26.307,0.04,26.205,0.04,26.105,0.04z"/>
	<path fill="#7DDB7D" d="M0,23.7c0.085,0.1,0.07,0.2,0,0.3C0,23.9,0,23.8,0,23.7z"/>
	<path fill="#60D360" d="M50,26.15c-0.09-0.101-0.064-0.201,0-0.301C50,25.949,50,26.051,50,26.15z"/>
	<path fill="#7DDB7D" d="M0,26c0.07,0.102,0.085,0.199,0,0.301C0,26.199,0,26.102,0,26z"/>
	<path fill="#7DDB7D" d="M23.7,50c0.1-0.085,0.2-0.068,0.3,0C23.9,50,23.8,50,23.7,50z"/>
	<path fill="#7DDB7D" d="M25.949,50c0.102-0.068,0.201-0.085,0.301,0C26.15,50,26.051,50,25.949,50z"/>
	<path fill="#00B800" d="M50,23.5c-0.051-0.2-0.045-0.41-0.045-0.615c-0.01-1.04-0.186-2.055-0.396-3.064
		c-0.52-2.471-1.397-4.811-2.625-7.016C45.385,10.02,43.38,7.62,40.921,5.6c-2.524-2.076-5.356-3.6-8.481-4.57
		c-1.969-0.61-3.979-1.02-6.06-1.006c-0.09,0-0.185,0-0.274,0C26.005,0.01,25.896,0.055,25.795,0c-0.016,0-0.035,0-0.05,0
		c-0.165,0.04-0.335,0.04-0.5,0c-0.165,0-0.335,0-0.5,0c-0.165,0.04-0.335,0.04-0.5,0c-0.016,0-0.035,0-0.05,0
		c-0.096,0.055-0.2,0.01-0.301,0.024c-0.1-0.015-0.205,0.03-0.3-0.024c-0.015,0-0.035,0-0.05,0c-0.21,0.055-0.43,0.04-0.64,0.045
		c-1.04,0.01-2.056,0.18-3.065,0.39c-2.47,0.516-4.811,1.396-7.02,2.62C10.045,4.6,7.64,6.595,5.625,9.045
		C3.15,12.06,1.46,15.465,0.564,19.26c-0.239,1.02-0.435,2.051-0.494,3.105c-0.021,0.364,0,0.729-0.07,1.09c0,0.085,0,0.165,0,0.25
		c0.04,0.1,0.04,0.2,0,0.3c0,0.085,0,0.165,0,0.25c0.04,0.165,0.04,0.335,0,0.5c0,0.165,0,0.335,0,0.5c0.04,0.165,0.04,0.335,0,0.5
		c0,0.085,0,0.165,0,0.25c0.04,0.101,0.04,0.2,0,0.302c0,0.084,0,0.164,0,0.25c0.05,0.174,0.045,0.358,0.045,0.539
		c0.005,1.021,0.175,2.025,0.38,3.021c0.515,2.489,1.4,4.845,2.635,7.069c1.535,2.767,3.525,5.16,5.97,7.176
		c3.016,2.479,6.431,4.176,10.23,5.074c1.021,0.24,2.051,0.437,3.104,0.496c0.364,0.019,0.729,0,1.09,0.068c0.085,0,0.165,0,0.25,0
		c0.1-0.039,0.2-0.039,0.3,0c0.085,0,0.165,0,0.25,0c0.165-0.039,0.335-0.039,0.5,0c0.165,0,0.335,0,0.5,0
		c0.15-0.039,0.302-0.039,0.45,0c0.085,0,0.165,0,0.25,0c0.102-0.039,0.199-0.039,0.3,0c0.065,0,0.136,0,0.2,0
		c0.21-0.055,0.432-0.039,0.641-0.045c1.041-0.01,2.055-0.18,3.064-0.391c2.47-0.515,4.811-1.396,7.021-2.619
		c2.778-1.541,5.18-3.535,7.194-5.99c2.476-3.01,4.164-6.415,5.06-10.209c0.24-1.021,0.437-2.051,0.496-3.105
		c0.019-0.365,0-0.729,0.068-1.09c0-0.136,0-0.266,0-0.4c-0.039-0.1-0.039-0.2,0-0.299c0-0.035,0-0.065,0-0.102
		c-0.039-0.164-0.039-0.335,0-0.5c0-0.165,0-0.335,0-0.5c-0.039-0.165-0.039-0.335,0-0.5c0-0.065,0-0.135,0-0.2
		c-0.039-0.115-0.039-0.235,0-0.35C50,23.635,50,23.564,50,23.5z M39.45,30.075c-1.175,1.686-2.625,3.118-4.194,4.438
		c-2.956,2.485-6.119,4.676-9.49,6.565c-0.436,0.246-0.88,0.476-1.375,0.575c-0.67,0.14-0.975-0.146-0.88-0.82
		c0.075-0.523,0.175-1.05,0.26-1.574c0.07-0.436,0.105-0.875,0.051-1.32c-0.051-0.364-0.24-0.609-0.556-0.779
		c-0.439-0.24-0.915-0.335-1.405-0.41c-3.26-0.505-6.229-1.699-8.784-3.824c-2.21-1.841-3.79-4.105-4.425-6.945
		c-0.75-3.391-0.016-6.489,1.999-9.291c1.78-2.47,4.175-4.15,6.97-5.285c2.365-0.961,4.835-1.396,7.705-1.41
		c3.59,0.04,7.225,1.01,10.475,3.25c2.267,1.564,4.046,3.555,5.035,6.145C42.291,23.189,41.771,26.761,39.45,30.075z"/>
	<path fill="#00B800" d="M24.895,23.185c0,0.15,0,0.23,0,0.311c0,1.285,0,2.564,0,3.85c0,0.354-0.1,0.456-0.46,0.461
		c-0.314,0-0.635,0-0.949,0c-0.29-0.005-0.405-0.105-0.405-0.386c-0.005-2.375-0.005-4.75,0-7.125c0-0.28,0.115-0.385,0.399-0.385
		c0.311-0.005,0.615,0.015,0.926-0.005c0.234-0.016,0.385,0.075,0.52,0.26c1.006,1.37,2.021,2.729,3.03,4.095
		c0.05,0.065,0.101,0.135,0.16,0.215c0.062-0.09,0.034-0.18,0.034-0.265c0-1.275,0-2.55,0-3.825c0-0.39,0.097-0.479,0.49-0.479
		c0.289,0,0.586,0,0.875,0c0.359,0,0.455,0.095,0.455,0.459c0,1.91,0,3.815,0,5.726c0,0.426,0,0.852,0,1.275
		c0,0.334-0.104,0.436-0.431,0.436c-0.3,0-0.601-0.011-0.899,0.006c-0.234,0.015-0.386-0.076-0.524-0.267
		c-1.007-1.37-2.021-2.73-3.03-4.095C25.045,23.375,24.995,23.31,24.895,23.185z"/>
	<path fill="#00B800" d="M31.105,23.835c0-1.16,0-2.315,0-3.475c0-0.36,0.1-0.465,0.455-0.465c1.465,0,2.93,0,4.398,0
		c0.359,0,0.45,0.095,0.455,0.46c0,0.314,0.005,0.635,0,0.949c-0.005,0.305-0.1,0.4-0.405,0.405c-0.94,0.005-1.885,0.01-2.823-0.005
		c-0.211-0.005-0.275,0.06-0.261,0.265c0.017,0.25,0.017,0.5,0,0.75c-0.011,0.175,0.046,0.226,0.22,0.226
		c0.937-0.011,1.864-0.006,2.801-0.006c0.395,0,0.47,0.075,0.47,0.466c0,0.3,0,0.6,0,0.899c0,0.355-0.09,0.445-0.438,0.445
		c-0.937,0-1.865,0.005-2.801-0.005c-0.189,0-0.266,0.04-0.25,0.245c0.02,0.25,0.016,0.5,0,0.75
		c-0.011,0.186,0.045,0.239,0.234,0.239c0.908-0.011,1.814-0.004,2.725-0.004c0.477,0,0.53,0.055,0.53,0.528
		c0,0.302,0.005,0.601,0,0.899c-0.005,0.271-0.108,0.386-0.375,0.386c-1.515,0.005-3.028,0.005-4.55,0
		c-0.275,0-0.381-0.13-0.381-0.435C31.105,26.186,31.105,25.01,31.105,23.835z"/>
	<path fill="#00B800" d="M13.824,23.825c0-1.15,0-2.301,0-3.45c0-0.385,0.091-0.475,0.466-0.475c0.275,0,0.55,0,0.825,0
		c0.445,0,0.529,0.08,0.529,0.515c0,1.765,0.005,3.53-0.005,5.296c0,0.225,0.061,0.273,0.275,0.27
		c0.915-0.016,1.83-0.004,2.75-0.004c0.38,0,0.475,0.094,0.475,0.469c0,0.315,0.005,0.636,0,0.951
		c-0.005,0.279-0.12,0.398-0.395,0.398c-1.51,0-3.016,0-4.525,0c-0.29,0-0.39-0.119-0.396-0.449
		C13.824,26.176,13.824,25,13.824,23.825z"/>
	<path fill="#00B800" d="M20.13,23.86c0-1.155,0-2.315,0-3.471c0-0.399,0.085-0.484,0.48-0.484c0.314,0,0.635-0.005,0.95,0
		c0.265,0.005,0.385,0.12,0.385,0.38c0,2.38,0,4.76,0,7.146c0,0.254-0.126,0.369-0.396,0.375c-0.324,0.004-0.65,0-0.975,0
		c-0.345,0-0.445-0.096-0.45-0.447C20.13,26.189,20.13,25.025,20.13,23.86z"/>
</g>
</svg>
