<svg version="1.1" xmlns="http://www.w3.org/2000/svg" xmlns:xlink="http://www.w3.org/1999/xlink" x="0px" y="0px" width="100%" viewBox="0 0 681.264 260.136">
<g>
	<path fill="#910000" d="M597.24,64.8l2.304-0.864
		c5.04-1.8,2.736-4.536,2.736-4.536l-5.04,1.368L594.72,61.2V36.864c0.648-0.072,1.513-0.072,2.521,0.144
		c1.368,0.432,2.736,0.936,5.04,1.872c0,0,5.976,4.968,4.104-6.912c0,0-3.168-5.904-9.144-9.144
		c-0.792-0.36-1.656-0.792-2.521-1.224v-9.936c0.721-0.432,1.584-0.792,2.521-1.152l0.936-0.432c0,0,11.88,0,18.217-5.04
		c0,0,5.544-5.04,13.752,0.936c0,0,2.735,2.736,5.903,4.104c0,0,3.672,0,5.04,10.512c0,0,1.8,10.44-2.304,13.176
		c0,0-4.536,0-4.536,9.144l0.936,24.696c0,0-1.367,5.904,9.576,4.104c0,0,8.208-3.672,15.984-4.104c0,0,8.64-0.936,11.88,5.904
		c0,0,15.984,14.616,4.104,18.216c0,0-22.896,0.504-26.929,2.304c0,0-25.632-0.864-27.432,3.672c0,0-22.824-2.664-13.248,5.04
		c0,0,21.96,7.776,33.768,1.8c0,0,7.776-9.504,13.752-3.6c0,0,17.784,17.352,15.049,26.856c0,0-17.856,45.216-38.809,57.96
		c0,0-2.735,5.04-16.848,5.904c0,0-10.08-0.864-18.792-0.432c-0.864,0.071-1.656,0.144-2.521,0.216v-21.601
		c0.792,0.288,1.656,0.433,2.521,0.433c4.607,0,9.144-3.672,9.144-3.672C609.12,166.176,619.2,156.6,619.2,156.6
		c0.864-6.84,13.68-18.288,13.68-18.288c4.104-12.312-2.735-18.216-2.735-18.216c-10.08-4.104-4.104,2.736-4.104,2.736
		c4.104,2.304-2.736,8.64-2.736,8.64l-26.063,17.353l-2.521,1.728V85.104c0.937-0.144,1.801-0.144,2.521-0.144
		c0.936-0.504,1.368-0.504,1.368-0.504c7.775,0.936,6.84-3.168,6.84-3.168c0-5.472-5.904-3.672-5.904-3.672
		c-0.936,0-1.368,0.504-2.304,0.504c-0.937,0.072-1.729,0.216-2.521,0.36V65.736L597.24,64.8z M594.72,232.704v-17.712
		l22.608,31.464v-25.992c0-2.304-0.432-3.672-1.296-4.608c-1.008-0.432-2.376-0.936-4.176-0.936h-0.433v-2.736h15.984l-0.432,2.736
		c-1.872,0-3.24,0.504-4.104,1.368c-0.936,0.936-1.44,2.304-1.44,4.176v38.304h-7.775L594.72,232.704z M673.488,225L673.488,225
		c-1.368-3.168-2.736-5.904-5.04-7.776c-2.304-1.8-4.968-2.735-7.704-2.735c-4.608,0-7.776,1.8-10.512,5.472
		c-2.305,4.104-3.672,9.144-3.672,15.048c0,6.912,0.936,12.313,3.672,16.056c2.304,3.601,5.472,5.904,9.575,5.904
		c2.305,0,4.104-0.432,5.04-1.872c0.937-0.936,1.297-2.735,1.297-4.968v-5.976c0-2.232-0.36-3.601-1.297-4.608
		c-0.936-0.864-2.304-1.296-5.04-1.8v-2.232h21.456v2.232c-1.871,0.504-2.735,0.936-3.239,1.439
		c-0.36,0.864-0.864,1.801-0.864,4.032v9.145v1.367l0.504,1.368c-3.24,1.872-5.976,3.24-8.712,3.672
		c-3.168,0.937-5.904,1.368-8.712,1.368c-2.736,0-5.4-0.432-8.208-0.864c-2.232-0.936-4.536-1.871-6.84-3.239
		c-3.601-2.305-6.408-5.473-8.208-8.712c-1.801-3.601-2.736-7.272-2.736-11.809c0-3.672,0.936-7.271,2.304-10.512
		c1.368-3.168,3.601-5.904,6.841-8.712c1.8-1.8,4.104-2.736,6.84-3.601c2.735-1.367,5.472-1.367,8.208-1.367
		c2.304,0,5.04,0.432,7.704,1.367c2.808,0.864,4.607,1.368,4.607,1.368l1.368-0.936l0.936-1.368h2.305L676.224,225H673.488z
		 M594.72,61.2l-5.184,0.936c-7.776,2.664,2.664,4.536,2.664,4.536l2.52-0.936V78.48c-9.071,1.944-5.184,7.776-5.184,7.776
		c1.224-0.576,3.24-1.008,5.184-1.152v65.448l-3.384,2.376c-11.808,0-5.04,4.608-5.04,4.608c3.24,1.368,5.04,9.072,5.04,9.072
		c0.864,1.728,2.088,2.735,3.384,3.239v21.601c-4.464,0.504-8.279,1.439-10.224,2.952c0,0-13.68,5.04-15.552-5.04
		c0,0,4.607-16.345,2.735-22.752c0,0,1.872-7.704-8.64-4.032l-18.647-0.937v-5.544l1.728-0.432c0,0,32.4-16.416,35.64-20.952
		c0,0,10.44-8.712-3.239-0.936c0,0-21.889,15.048-29.593,15.983c0,0-1.872-0.432-4.535-0.432v-10.584
		c5.399-1.8,11.808-4.968,13.607-7.272c0,0,6.84-11.376-5.904-2.736c0,0-3.168,2.304-7.703,4.104v-15.048
		c3.672-1.44,12.743-4.536,15.479-5.472c0,0,7.776-6.84-5.04-3.672c0,0-5.04,1.368-10.439,2.304V91.296
		c2.304-0.432,5.399-0.864,8.64-1.296c0,0,14.616,1.728,12.744-7.776c0,0-7.776-65.736-0.937-78.12c0,0,5.977-7.704,12.816,0
		c0,0-1.8,7.848,8.64,9.648c0,0,5.904,0,2.304,15.48c0,0-6.84,9.648,5.04,7.776c0,0,0.36-0.144,1.08-0.144V61.2z M594.72,11.664
		c-8.279,4.392-0.216,9.792-0.216,9.792l0.216,0.144V11.664z M594.72,214.992v17.712l-8.855-12.24v30.096
		c0,2.305,0.432,3.601,1.368,4.536c0.936,0.433,2.304,0.937,4.104,0.937h0.432v2.735h-15.479v-2.735h0.432
		c1.801,0,3.168-0.504,4.104-0.937c0.936-0.936,0.936-2.231,0.936-4.536v-33.336c-0.504-0.432-1.367-1.368-2.231-1.8
		c-1.008-0.504-1.872-0.504-3.24-0.504v-2.736h16.416L594.72,214.992z M544.393,244.152v-4.104h7.271l-7.271-19.008v-8.856h7.703
		l15.553,37.944c0.863,2.232,1.8,4.032,2.664,4.536c0.936,0.864,2.304,1.368,3.672,1.368v2.735H551.16v-2.735
		c1.368,0,2.736,0,3.672-0.504c0.936-0.864,1.368-1.368,1.368-2.232c0-0.936-0.433-1.8-0.937-3.168l-0.432-0.504l-1.8-5.472H544.393
		z M544.393,86.76c5.399-1.368,9.504-2.304,9.504-2.304c13.752-8.64-3.168-25.56-3.168-25.56
		c-7.776-13.248,10.008-22.824,10.008-22.824c5.903-5.04-8.641-24.12-8.641-24.12c-2.735-3.672-5.399-5.976-7.703-7.344V86.76z
		 M544.393,4.608V86.76h-0.072c-5.256,0.864-12.313,2.592-16.92,3.96V75.528c1.008-0.72,3.096-3.168,0.936-10.728
		c0,0-1.368-12.312,3.672-18.216c0,0,7.561-13.32-4.607-7.92V16.2c2.52-1.8,4.823-3.816,6.407-6.12c0,0,2.736-9.144,10.513-5.472
		H544.393z M544.393,91.296v19.656h-0.072c-3.168,0.432-6.336,0.936-9.145,1.368c0,0-5.688-0.648-7.775-4.032v-6.048
		c0.72-1.512,1.872-3.384,3.672-5.472c0,0-0.433-3.168,13.248-5.472H544.393z M544.393,117.792v15.048h-0.072
		c-5.473,2.304-12.744,4.608-14.185,0.937c0,0-3.168-7.776,2.809-12.745c0,0,2.231-5.976,10.008-2.736l1.368-0.504H544.393z
		 M544.393,138.744v10.584h-0.072c-6.84-0.504-17.784-1.872-7.272-7.776c0,0,3.168-0.936,7.272-2.808H544.393z M544.393,156.096
		v5.544h-0.072h-0.433c0,0-10.08-2.304,0.433-5.472L544.393,156.096z M544.393,212.184v8.856l-0.072-0.145v0.937v-9.145v-0.504
		H544.393z M544.393,244.152h-0.072v-4.104h0.072V244.152z M527.4,258.768h10.584v-2.735c-1.872,0-3.24-0.504-4.177-0.937
		c-0.863-0.432-1.367-1.368-1.367-2.735v-0.864c0.504-0.433,0.504-1.368,0.936-2.304l1.8-5.04h9.145v-4.104h-7.272l7.272-18.216
		v-9.145l-15.984,37.872c-0.288,0.648-0.576,1.152-0.936,1.656V258.768z M527.4,215.208v-3.024h1.872v2.736
		C528.624,214.92,527.977,215.063,527.4,215.208 M527.4,16.2v22.464c-0.145,0.072-0.288,0.144-0.433,0.216
		c0,0-1.08,1.656-2.952,3.096V18.432C525.168,17.784,526.32,16.992,527.4,16.2 M527.4,75.528V90.72l-0.433,0.144
		c0,0-1.296-0.432-2.952-0.288V77.76c0.864-0.504,1.872-1.152,2.952-1.944C526.968,75.816,527.184,75.744,527.4,75.528
		 M527.4,102.24v6.048C526.536,106.776,526.32,104.832,527.4,102.24 M527.4,212.184v3.024c-0.648,0.216-1.296,0.576-1.801,1.08
		v-4.104H527.4z M527.4,252.216v6.552H525.6v-4.104C526.248,254.016,526.824,253.224,527.4,252.216 M524.016,258.768h1.584v-4.104
		c-0.504,0.504-1.008,0.864-1.584,1.08V258.768z M524.016,217.944c0.576-0.576,1.152-1.152,1.584-1.656v-4.104h-1.584V217.944z
		 M524.016,18.432v23.544c-2.808,2.232-7.344,3.888-12.527-1.296c0,0-6.912-5.472-8.28-6.912c0,0-9.576-6.408,5.977-8.64
		C509.185,25.128,516.816,22.752,524.016,18.432 M524.016,77.76c-8.783,5.184-7.991-1.944-7.991-1.944
		c-0.937-9.144,3.168-18.72,3.168-18.72c0-11.448-7.704-13.248-7.704-13.248c-7.344-4.176-13.248-9.072-13.248-9.072
		c-7.776-4.608-11.448-1.008-11.448-1.008c-8.208,2.304-2.231,8.712-2.231,8.712l7.703,16.92c6.408,10.44,0,91.728,0,91.728
		c-3.6,9.576,5.977,20.088,5.977,20.088c2.231,9.504,15.048-0.936,15.048-0.936c6.84-4.969,5.904-10.513,5.904-10.513
		c-3.168-6.84-2.736-55.224-2.736-55.224c-0.288-11.376,4.32-13.752,7.56-13.968V77.76z M524.016,212.184v5.761
		c-0.575,0.647-1.151,1.296-1.584,2.016l-0.504,0.504l-12.743,19.08v11.52c0,1.801,0.432,3.097,1.367,4.032
		c0.937,0.433,2.305,0.937,4.536,0.937v2.735h-22.824v-2.735c2.305,0,3.673-0.504,4.608-0.937c0.864-0.936,1.368-2.231,1.368-4.032
		v-11.52l-11.88-18.216l-0.504-0.433c-2.232-3.672-4.536-5.976-6.841-5.976v-2.736h23.257v2.736c-1.296,0-2.664,0-3.601,0.504
		c-0.936,0.432-1.368,0.864-1.368,1.8l0.433,1.368c0.504,0.937,0.504,1.368,1.368,2.304l6.407,10.513h0.504
		c0.433,1.368,1.297,2.231,1.801,3.6c0.432-0.864,0.863-1.8,1.368-2.736c0.432-0.863,0.936-1.8,1.367-2.231l5.904-8.712
		c0.504-0.864,0.937-1.8,1.368-2.232v-1.439c0-0.864,0-1.801-0.864-2.232c-0.936-0.504-2.304-0.504-3.672-0.504h-0.432v-2.736
		H524.016z M524.016,255.744c-0.504,0.216-1.008,0.288-1.584,0.288v2.735h1.584V255.744z M373.176,258.192V240.12l4.536,6.336
		v-25.992c0-2.304-0.432-3.672-1.368-4.608c-0.72-0.359-1.728-0.72-3.168-0.863v-2.809h14.112v2.736c-1.8,0-3.168,0.504-4.104,1.368
		c-0.937,0.936-1.368,2.304-1.368,4.176v38.304h-8.208L373.176,258.192z M373.176,142.488V92.664
		c6.408-2.304,5.473-11.376,5.473-11.376c-3.24-7.344,2.735-13.68,2.735-13.68c-0.936-4.608-4.536-5.04-8.208-5.04V49.32
		c4.608-1.368,15.48-5.04,20.017-5.904c5.976-1.44,7.775-1.44,14.616,5.976c0,0,7.344,10.008,11.016,12.24
		c0,0,5.904,5.04,1.368,10.08c0,0-14.185,14.544-16.92,26.928c0,0-2.305,8.208-13.248,7.272c-10.44-0.432-7.776,6.912-1.801,12.384
		c0,0,44.713,29.16,50.688,35.568c4.104,3.672,13.68,10.512,14.616,14.111v0.937c-0.504,1.368-2.305,1.872-6.912,1.368
		c0,0-21.888,0.936-26.424,4.968c0,0-5.04,1.8-12.384-4.032C407.809,171.216,385.056,157.032,373.176,142.488 M373.176,78.984
		c0.864-1.872,1.296-4.536,0-7.704V78.984z M373.176,40.176V12.384c1.44-0.504,10.944-1.8,13.248,8.208c0,0,7.704,12.312,1.8,15.48
		C388.224,36.072,379.08,37.44,373.176,40.176 M433.872,225L433.872,225c-1.368-3.168-3.24-5.904-5.472-7.776
		c-2.305-1.8-5.04-2.735-7.776-2.735c-4.104,0-7.776,1.8-10.08,5.472c-2.735,4.104-4.104,9.144-4.104,15.048
		c0,6.912,1.368,12.313,3.672,16.056c2.304,3.601,5.903,5.904,10.08,5.904c2.231,0,3.6-0.432,4.536-1.872
		c1.367-0.936,1.871-2.735,1.871-4.968v-5.976c0-2.232-0.504-3.601-1.439-4.608c-0.864-0.864-2.736-1.296-4.968-1.8v-2.232h20.952
		v2.232c-1.297,0.504-2.736,0.936-3.168,1.439c-0.505,0.864-0.937,1.801-0.937,4.032v9.145l0.432,1.367v1.368
		c-2.735,1.872-5.903,3.24-8.64,3.672c-2.736,0.937-5.904,1.368-8.64,1.368c-2.736,0-5.473-0.432-7.776-0.864
		c-2.736-0.936-5.04-1.871-6.912-3.239c-3.6-2.305-6.336-5.473-8.136-8.712c-1.872-3.601-2.808-7.272-2.808-11.809
		c0-3.672,0.504-7.271,1.871-10.512c1.801-3.168,4.104-5.904,6.841-8.712c2.231-1.8,4.536-2.736,6.84-3.601
		c2.735-1.367,5.472-1.367,8.208-1.367c2.735,0,5.472,0.432,8.279,1.367c2.664,0.864,4.032,1.368,4.536,1.368l1.368-0.936
		l0.433-1.368h2.304L436.176,225H433.872z M373.176,12.384v27.792h-0.071c-2.232,0.936-4.104,1.8-4.536,3.24
		c0,0-8.208,2.736,2.735,6.84c0,0,0.505-0.432,1.801-0.864l0.071-0.072v13.248h-0.071C369,63,365.4,64.8,365.4,64.8
		c-2.736,5.04,7.271,5.976,7.271,5.976l0.433,0.432l0.071,0.072v7.704h-0.071c-1.801,3.672-5.473,5.976-5.473,5.976
		c-5.903,8.64,5.04,8.208,5.04,8.208l0.433-0.504h0.071v49.824l-0.071-0.072c-2.232-2.736-4.104-5.4-5.473-8.208
		c0,0-7.271-9.072-5.903,4.104l1.871,31.032c0,0-0.936,4.968-4.176,8.208c0,0-15.479,16.416-22.248,17.28c0,0-14.184,0-19.224-9.576
		l-0.216-0.36v-13.68h0.216c3.672-0.432,7.776-2.736,9.144-10.944l-1.8-16.487c0,0,2.736-5.473-7.344,0.504l-0.216,0.072v-40.68
		h0.216l7.344,0.864c8.64-4.968-6.408-9.072-6.408-9.072l-0.936-1.008c-0.072-0.072-0.144-0.144-0.216-0.216v-16.56
		c0.072,0,0.144-0.072,0.216-0.072c3.672-1.8,9.144-0.936,9.144-0.936c0.936-8.64-9.144-2.736-9.144-2.736
		c-0.072,0.072-0.144,0.072-0.216,0.072V63.072L317.952,63c1.872-0.432,3.672-0.864,5.976-2.232c0,0,12.816-9.576-0.936-7.344
		c0,0-2.304,0.936-5.04,0.936h-0.216V25.272l0.216-0.144c2.304-0.432,7.776-2.304,2.304-9.576c0,0-1.8-2.232-2.304-5.472V5.472
		c0.936-2.664,3.672-4.968,10.08-5.472c0,0,20.952,2.304,26.424,3.24l6.336,8.208c0,0,0.937,3.168,11.88,0.936h0.433H373.176z
		 M373.176,212.184v2.809c-0.432,0-0.863-0.072-1.367-0.072v-2.736H373.176z M373.176,240.12l-20.088-27.937h-16.344v2.736
		c0.792,0,2.16,0,3.096,0.504c0.937,0.432,1.8,1.368,2.305,1.8v33.336c0,2.305-0.505,3.601-1.368,4.536
		c-0.937,0.433-2.304,0.937-4.032,0.937v2.735h15.408v-2.735h-0.433c-1.872,0-3.239-0.504-4.104-0.937
		c-0.937-0.936-1.368-2.231-1.368-4.536v-30.096l26.928,37.729V240.12z M317.736,257.616v-4.248
		c0.432-0.288,0.792-0.648,1.152-1.008c1.8-2.736,2.736-6.408,2.736-11.376v-20.521c0-2.304-0.432-3.672-1.368-4.608
		c-0.648-0.287-1.44-0.647-2.52-0.792v-2.88H331.2v2.736c-1.8,0-3.168,0.504-4.104,1.368c-0.864,0.936-1.368,2.304-1.368,4.176
		v20.521c0,6.336-1.8,10.943-4.536,14.111C320.184,256.104,319.032,256.968,317.736,257.616 M317.736,9.144
		c0.072,0.36,0.144,0.648,0.216,0.936V5.472c-0.072,0.288-0.144,0.648-0.216,0.936V9.144z M317.736,6.408v2.736
		C317.592,8.28,317.592,7.272,317.736,6.408 M317.736,25.272V54.36c-4.032,0.432-9.864-0.576-14.328-6.84
		c0,0-4.104-4.104-10.008-10.512c0,0-6.912-5.976,5.904-8.208l17.784-3.168L317.736,25.272z M317.736,63.072
		c-7.632,1.296-14.328-2.304-14.328-2.304c-4.104-4.176-20.088-4.176-20.088-4.176c-14.616-3.168-11.448,16.416-11.448,16.416
		c5.904,1.872,10.512,11.016,10.512,11.016c1.368,5.472,9.144,20.52,9.144,20.52c2.736,13.752,11.88,14.616,11.88,14.616
		c6.84,0,0.864,5.976,0.864,5.976c-1.8,1.8-22.824,18.216-22.824,18.216c-5.904,5.473-25.56,18.721-25.56,18.721
		c-10.944,5.903-1.8,9.144-1.8,9.144h12.744c7.776,0.864,19.656-7.344,19.656-7.344c3.24,0,30.6-19.152,30.6-19.152l0.648-0.359
		v-40.68h-1.584c0,0-7.776-4.104-7.776-15.552c0,0-4.968-10.872,9.36-14.112V63.072z M317.736,77.688v16.56
		c-6.984-7.56-3.384-12.96-3.384-12.96C314.784,79.488,316.08,78.192,317.736,77.688 M317.736,171.216v13.68l-0.648-1.439
		c0,0-2.736-5.04-9.576-8.208c0,0-5.976-6.769,4.536-4.968C312.048,170.28,314.64,171.144,317.736,171.216 M317.736,212.184v2.88
		c-0.432-0.071-1.008-0.144-1.584-0.144h-0.432v-2.736H317.736z M317.736,253.368c-2.016,1.728-4.608,2.664-8.424,2.664
		c-3.672,0-6.84-1.368-8.64-3.672c-2.304-2.232-3.24-5.473-3.24-10.009V219.96c0-1.8,0.504-3.168,1.368-4.104
		c0.936-0.432,2.304-0.936,4.608-0.936v-2.736h-22.392v2.736c2.304,0,3.672,0.504,4.536,0.936c0.504,0.937,0.936,2.305,0.936,4.104
		v20.088c0,7.272,1.872,12.313,5.04,15.048c3.168,3.24,8.208,5.04,15.48,5.04c4.176,0,7.848-0.864,10.728-2.52V253.368z
		 M97.776,250.056v-9c0.432,1.296,0.648,2.664,0.648,4.032C98.424,246.888,98.208,248.544,97.776,250.056 M97.776,173.664v-14.832
		c5.4-11.592,11.952-35.208,7.056-74.376c0,0-3.672-22.32-5.904-31.536c0,0-1.872-1.368,4.968-8.64c0,0,2.736-15.048,19.656-5.904
		c0,0,1.368,7.272,12.744,4.104c0,0,9.144-1.8,16.92-9.144c0,0,19.152-26.496,36.504-17.352c0,0,11.88,8.28,10.008,19.224
		c0,0,7.776,9.576-53.352,13.68c0,0-8.712-2.304-6.84,5.904L138.6,77.184c0,0-0.936,9.072,6.84-0.936c0,0,5.904-16.416,21.96-8.208
		c0,0,13.608,8.208,22.824-3.24c0,0,10.44-5.904,20.52,3.24c0,0,5.04,10.08,10.944,17.352c0,0,3.672,8.208-9.144,11.88
		c0,0-22.824-8.208-26.496,4.968c0,0-1.8,25.56-0.864,38.808c0,0,2.736,36.504-1.368,41.472l-20.592,13.248
		c0,0-5.904,1.368-7.776-3.168l-5.904-16.92c0,0-3.168-19.08-0.936-37.368l-2.232-25.488c0,0-3.672-14.688-7.776-0.936
		c0,0-3.168,35.137-26.928,51.48L97.776,173.664z M97.776,148.896c2.304-4.176,1.584-7.128,0-8.567V148.896z M97.776,129.6
		c3.024-0.864,5.256-0.864,5.256-0.864c6.768-16.848-5.04-21.888-5.04-21.888h-0.216V129.6z M97.776,98.712
		c8.28-10.224,2.016-14.256,2.016-14.256c-0.792,0-1.296,0-2.016-0.36V98.712z M97.776,76.824
		c2.952-4.536,3.384-10.152,3.384-10.152c0-5.688-1.224-9.72-3.384-12.024V76.824z M97.776,38.736
		c3.456-1.8,5.256-3.528,5.256-3.528c2.736-0.936,1.8-15.984,1.8-15.984c1.8-8.208-4.104-6.408-4.104-6.408h-2.952V38.736z
		 M145.872,251.063L145.872,251.063c0,1.801,0.504,3.097,1.368,4.032c0.936,0.937,2.304,1.44,4.104,1.44h0.504v2.735h-15.552v-2.735
		h0.504c1.8,0,3.168-0.504,4.104-1.44c0.936-0.936,1.368-2.231,1.368-4.032v-33.407c-0.936-0.864-1.368-1.368-2.304-1.801
		c-0.864-0.432-2.304-0.936-3.672-0.936v-2.232h16.92l24.624,34.2v-26.424c0-1.872-0.432-3.24-1.368-4.176
		c-1.368-0.864-2.736-1.368-4.536-1.368v-2.232h15.552v2.232c-2.304,0-3.672,0.504-4.608,1.368
		c-0.936,0.936-1.368,2.304-1.368,4.176v38.808h-7.776l-27.864-38.376V251.063z M124.92,251.496L124.92,251.496
		c0,1.8,0.432,3.168,1.368,3.6c0.936,0.937,2.232,1.44,4.536,1.44v2.735H108v-2.735c1.8,0,3.672-0.504,4.608-1.44
		c0.864-0.432,1.368-1.8,1.368-3.6V219.96c0-1.8-0.504-2.736-1.368-3.672c-0.936-0.864-2.808-1.368-4.608-1.368v-2.232h22.824v2.232
		c-2.304,0-4.104,0.504-4.536,1.368c-0.936,0.936-1.368,1.872-1.368,3.672V251.496z M249.48,215.855L249.48,215.855h-3.6
		c-2.736,0-4.536,0.937-6.408,2.305c-1.368,1.368-2.304,3.168-2.736,5.903H234l0.432-11.88h41.544l0.504,11.88h-3.24
		c0-2.735-0.864-4.535-2.736-5.903c-1.368-1.368-3.672-2.305-6.336-2.305h-3.672v35.208c0,1.801,0.432,3.097,1.368,4.032
		c0.936,0.433,2.304,0.937,4.536,0.937v2.735h-22.824v-2.735c2.304,0,3.672-0.504,4.536-0.937c0.936-0.936,1.368-2.231,1.368-4.032
		V215.855z M97.776,12.816v25.92l-0.288,0.144c-3.168,2.232-8.208,4.968-13.68,5.4c0,0-12.744-0.864-18.72,5.544
		c0,0-13.68,6.768-20.52,5.904c0,0-10.512,3.168-24.696-12.312V30.6c0.936-0.432,1.872-0.432,2.808-0.432
		c0,0,5.904-0.936,9.072,0.432c0,0,8.712,2.736,8.712-3.24c0,0,6.84-4.032,0.936-11.376c0,0-9.648-9.144-2.736-13.176
		c0,0,4.968-5.04,12.744-0.936c0,0,6.84,7.272,18.72,3.168c0,0,6.84-5.04,13.68,0.936c0,0,5.472,5.976,13.68,6.84H97.776z
		 M97.776,54.648c-0.072-0.144-0.216-0.216-0.288-0.288c-4.104-5.472-11.376-5.472-11.376-5.472
		c-12.816-6.408-18.72,5.904-18.72,5.904c-15.048,13.248-22.824,5.04-22.824,5.04C28.584,52.92,28.584,64.8,28.584,64.8l-3.6,10.08
		c-5.976,18.72,15.48,15.552,15.48,15.552c10.944-1.368,15.048-11.448,15.048-11.448c3.672-9.144,13.68-13.248,13.68-13.248
		c6.84-4.104,4.104,2.304,4.104,2.304l-4.104,13.248c-4.104,10.944-16.848,10.944-16.848,10.944l-19.656,5.04
		c-5.904-1.368-10.008-1.368-12.816-1.368v18.72c10.512,0,20.592,0.864,20.592,0.864l-5.976,2.304
		c-3.168,2.736-10.44,4.536-14.616,5.472v20.087c10.08,1.801,17.856-3.239,17.856-3.239c10.512-4.969,7.704,8.279,7.704,8.279
		c4.176,10.944-4.032,9.145-4.032,9.145c-13.752,1.8-5.04,13.248-5.04,13.248c8.208,8.136,7.272,17.208,7.272,17.208
		c3.672,11.88,13.752,2.808,13.752,2.808c4.968-7.344,19.584-11.88,19.584-11.88c6.84-3.24,5.04-9.072,5.04-9.072
		c-5.04-3.239-2.736-11.447-2.736-11.447c0-9.072,5.904-1.801,5.904-1.801c6.84,4.536,11.88-6.407,11.88-6.407l0.432-0.864
		c0.144-0.145,0.216-0.288,0.288-0.433v-8.567c-0.072-0.072-0.216-0.145-0.288-0.216c-1.8-1.801-4.536-2.232-4.536-2.232
		c-13.68-5.04-2.736-6.84-2.736-6.84c2.736-0.504,5.472-1.368,7.272-1.368l0.288-0.072v-22.752h-0.288
		c-3.6-1.368-13.68,3.672-13.68,3.672c-11.88,2.304,2.304-6.84,2.304-6.84c3.672-2.304,10.944-4.104,10.944-4.104l0.432-0.504
		c0.072-0.144,0.216-0.216,0.288-0.36V84.096c-0.072,0-0.144-0.072-0.288-0.072c-1.8-1.368-1.8-4.104-1.8-4.104
		c0.432-0.936,1.368-1.8,1.8-2.736c0.072-0.144,0.216-0.288,0.288-0.36V54.648z M97.776,158.832v14.832l-0.288,0.216l-0.432,0.432
		c0,0-11.88,4.608-4.104-6.768c0,0,2.304-2.736,4.536-8.208C97.56,159.192,97.704,158.976,97.776,158.832 M97.776,241.056v9
		c-0.72,2.305-2.016,4.32-3.888,5.977c-3.24,2.735-7.344,4.104-12.816,4.104c-2.736,0-5.472-0.432-8.208-1.368
		c-2.736-1.367-4.608-1.8-4.608-1.8l-1.296,0.864c-0.432,0-0.432,0.936-0.432,1.872H63.72l-0.432-14.616h2.736
		c0.936,3.672,2.736,6.408,5.04,8.64c2.736,1.801,5.472,2.809,8.64,2.809c2.736,0,5.04-0.504,6.84-1.872
		c1.368-1.368,2.304-3.168,2.304-5.472c0-1.872-0.432-3.24-1.368-4.104c-0.936-1.368-3.24-2.304-5.904-3.672l-6.408-2.736
		c-3.672-1.8-5.976-3.672-7.776-5.472c-1.368-2.304-2.304-4.608-2.304-7.344c0-4.032,1.44-7.272,4.536-10.009
		c2.808-2.735,6.408-4.104,10.584-4.104c2.232,0,4.968,0.432,7.272,1.368c2.304,0.936,3.672,1.368,4.104,1.368l1.368-0.433
		c0-0.504,0.432-0.936,0.432-1.872h2.736l0.504,13.248h-3.24c-0.864-3.168-2.736-5.903-4.968-7.775
		c-1.872-1.801-4.608-2.736-7.344-2.736c-2.232,0-4.104,0.504-5.472,1.872c-1.368,0.864-1.8,2.736-1.8,4.536
		c0,1.368,0.432,2.735,1.368,3.672c1.368,1.368,3.672,2.736,6.84,4.104l5.904,2.736c3.672,1.368,6.408,3.168,7.776,5.472
		C96.624,238.464,97.272,239.76,97.776,241.056 M19.872,259.271v-46.584h8.28v2.232c-1.8,0-3.672,0.504-4.608,1.368
		c-0.864,0.936-1.368,1.872-1.368,3.672v12.816h17.856V219.96c0-1.8-0.504-2.736-1.368-3.672c-0.936-0.864-2.736-1.368-4.608-1.368
		v-2.232h22.392v2.232c-2.304,0-3.672,0.504-4.536,1.368c-0.936,0.936-1.44,1.872-1.44,3.672v31.536c0,1.8,0.504,3.168,1.44,3.6
		c0.864,0.937,2.232,1.44,4.536,1.44v2.735H34.056v-2.735c1.872,0,3.672-0.504,4.608-1.44c0.864-0.432,1.368-1.8,1.368-3.6v-15.12
		H22.176v15.12c0,1.8,0.504,3.168,1.368,3.6c0.936,0.937,2.304,1.44,4.608,1.44v2.735H19.872z M19.872,177.552v-26.424
		c7.344-2.304,13.752-3.672,13.752-3.672c9.072-0.432,2.736,5.904,2.736,5.904c-10.512,7.775-5.976,14.184-5.976,14.184
		c0,6.768-3.6,6.768-3.6,6.768C24.984,176.112,22.68,177.048,19.872,177.552 M19.872,30.6v12.816l-0.864-0.936
		C19.008,42.48,9.432,33.768,19.872,30.6 M19.872,95.904v18.72c-0.864,0-6.84-1.368-11.808-7.776c0,0-5.04,0,5.904-8.712
		C13.968,98.136,14.904,96.336,19.872,95.904 M19.872,123.264v20.087c-2.232-0.432-4.536-0.936-6.84-2.304
		c0,0-12.672-1.944-13.032-10.512v-0.648c0.072-1.44,0.432-3.024,1.224-4.752c0,0,2.736-3.24,15.48-1.44
		C16.704,123.696,18.072,123.264,19.872,123.264 M19.872,151.128v26.424c-3.6,0.433-7.272,0-7.272,0
		c-17.352-5.904-9.576-16.416-9.576-16.416C7.128,156.6,13.968,153.36,19.872,151.128 M19.872,212.688v46.584H5.76v-2.735
		c2.304,0,3.672-0.504,4.608-1.44c0.432-0.432,0.864-1.8,0.864-3.6V219.96c0-1.8-0.432-2.736-0.864-3.672
		c-0.936-0.864-2.304-1.368-4.608-1.368v-2.232H19.872z"/>
</g>
</svg>
