<svg version="1.1" xmlns="http://www.w3.org/2000/svg" xmlns:xlink="http://www.w3.org/1999/xlink" x="0px" y="0px" width="100%" viewBox="-0.306 -0.306 50 50">
<g>
	<path fill="#FFF" d="M49.082,46.143L37.061,34.123c2.979-3.633,4.775-8.286,4.775-13.357c0-11.632-9.438-21.071-21.071-21.071
		c-11.643,0-21.071,9.439-21.071,21.071c0,11.633,9.429,21.071,21.071,21.071c5.071,0,9.715-1.785,13.347-4.765l12.021,12.01
		c0.816,0.816,2.133,0.816,2.949,0C49.898,48.276,49.898,46.949,49.082,46.143z M20.765,37.643c-9.316,0-16.888-7.571-16.888-16.878
		c0-9.306,7.571-16.888,16.888-16.888c9.307,0,16.888,7.582,16.888,16.888C37.653,30.072,30.072,37.643,20.765,37.643z"/>
</g>
</svg>
