<svg version="1.1" xmlns="http://www.w3.org/2000/svg" xmlns:xlink="http://www.w3.org/1999/xlink" x="0px" y="0px"
	 width="100%" viewBox="0 0 321 148.706">
<g>
	<defs>
		<rect id="SVGID_1_" y="39.102" width="51.653" height="40.074"/>
	</defs>
	<clipPath id="SVGID_2_">
		<use xlink:href="#SVGID_1_"  overflow="visible"/>
	</clipPath>
	<path clip-path="url(#SVGID_2_)" fill="#BADAFF" d="M42.958,41.777L9.069,39.126c-4.438-0.348-8.308,3.117-8.446,7.562
		L0.002,66.792c-0.074,2.417,1.768,4.436,4.186,4.585l15.712,0.973l4.997,6.825h2.807l2.14-6.211l10.831,0.669
		c3.916,0.243,7.301-2.812,7.451-6.726l0.717-18.524C48.977,44.946,46.394,42.047,42.958,41.777"/>
	<path clip-path="url(#SVGID_2_)" fill="#FAFEFF" d="M3.429,46.688l-0.62,20.104c-0.074,2.416,1.768,4.437,4.184,4.585l36.487,2.257
		c3.916,0.241,7.301-2.813,7.451-6.727l0.718-18.524c0.134-3.437-2.449-6.338-5.884-6.605l-33.89-2.652
		C7.438,38.778,3.566,42.243,3.429,46.688"/>
	<polygon clip-path="url(#SVGID_2_)" fill="#FAFEFF" points="21.845,71.175 27.703,79.176 33.366,72.063 	"/>
	<path clip-path="url(#SVGID_2_)" fill="#70C1FF" d="M24.631,65.412l-9.883-0.729l0.277-4.142c-0.027-2.303,2.197-4.002,4.566-3.827
		s4.639,2.206,4.664,4.507L24.631,65.412z"/>
	<path clip-path="url(#SVGID_2_)" fill="#70C1FF" d="M16.858,52.932c0.019,1.443,1.235,2.701,2.722,2.813
		c1.486,0.108,2.677-0.973,2.66-2.416s-1.236-2.703-2.722-2.813S16.842,51.487,16.858,52.932"/>
	<path clip-path="url(#SVGID_2_)" fill="#91CFFF" d="M39.991,66.541l-9.883-0.729l0.277-4.144c-0.028-2.301,2.196-4.001,4.566-3.825
		c2.369,0.174,4.639,2.205,4.664,4.507L39.991,66.541z"/>
	<path clip-path="url(#SVGID_2_)" fill="#91CFFF" d="M32.219,54.061c0.019,1.443,1.235,2.701,2.722,2.813
		c1.486,0.108,2.677-0.973,2.66-2.416s-1.235-2.703-2.722-2.813C33.394,51.535,32.202,52.617,32.219,54.061"/>
	<path clip-path="url(#SVGID_2_)" fill="#A8D9FF" d="M34.804,66.168L20.85,65.139l0.391-5.85c-0.039-3.25,3.103-5.65,6.448-5.403
		c3.346,0.246,6.55,3.115,6.588,6.364L34.804,66.168z"/>
	<path clip-path="url(#SVGID_2_)" fill="#A8D9FF" d="M23.83,48.545c0.023,2.037,1.744,3.815,3.843,3.971
		c2.099,0.154,3.78-1.373,3.757-3.411c-0.024-2.038-1.745-3.815-3.844-3.97C25.487,44.979,23.807,46.506,23.83,48.545"/>
</g>
<g>
	<defs>
		<rect id="SVGID_3_" x="83" y="52.626" width="59.643" height="47.454"/>
	</defs>
	<clipPath id="SVGID_4_">
		<use xlink:href="#SVGID_3_"  overflow="visible"/>
	</clipPath>
	<path clip-path="url(#SVGID_4_)" fill="#BADAFF" d="M134.82,68.255l-32.878-14.896c-0.08-0.036-0.161-0.061-0.241-0.094
		l0.618-0.638l-3.138,0.032c-0.49-0.037-0.978-0.035-1.461,0.015h-0.032l0.003,0.004c-2.96,0.32-5.654,2.24-6.792,5.239
		l-7.585,19.997c-0.912,2.404,0.227,5.099,2.585,6.122l15.332,6.646l2.62,8.67h3.775l0.604-2.759l2.705-1.704l10.57,4.582
		c1.07,0.464,2.188,0.645,3.276,0.59l-0.024,0.019l4.001-0.023l0.438-1.745c0.891-0.762,1.615-1.744,2.07-2.917l7.133-18.372
		C139.722,73.613,138.151,69.764,134.82,68.255"/>
	<path clip-path="url(#SVGID_4_)" fill="#FAFEFF" d="M138.596,68.255l-32.879-14.896c-4.306-1.951-9.365,0.137-11.042,4.558
		l-7.586,19.997c-0.911,2.404,0.228,5.099,2.586,6.122l15.332,6.646l2.619,8.67l7.084-4.463l10.57,4.582
		c3.821,1.657,8.253-0.193,9.76-4.077l7.134-18.372C143.497,73.613,141.927,69.764,138.596,68.255"/>
	<path clip-path="url(#SVGID_4_)" fill="#91CFFF" d="M117.901,71.101c1.849-1.257,2.721-1.614,4.22-3.271
		c2.346-2.247,1.514,2.545-2.897,6.228c0.988,0.548,2.093,0.825,3.152,1.207c0.923,0.333,2.066,0.464,2.957,0.878
		c0.89,0.415,1.509,0.77,1.571,1.75c0.06,0.98-0.61,1.82-1.552,1.535c0.532,1.313-0.26,2.829-1.672,2.951
		c0.397,1.126-0.706,2.72-1.899,2.7c0.622,0.405,0.342,1.658-0.229,2.136c-0.567,0.478-1.413,0.483-2.117,0.248
		c-0.704-0.236-6.908-3.281-10.639-5.633c0,0-3.975-2.466-6.67-2.467c1.039-1.837,2.079-3.675,3.118-5.513
		c0.197-0.349,0.398-0.702,0.682-0.984c1.631-1.617,3.732-0.058,5.546,0.143C113.698,73.256,116.096,72.329,117.901,71.101"/>
	<polygon clip-path="url(#SVGID_4_)" fill="#C2E4FF" points="104.528,70.474 110.613,72.835 105.799,81.762 99.308,80.059 	"/>
</g>
<g>
	<defs>
		<rect id="SVGID_5_" x="147.506" width="41.522" height="31.306"/>
	</defs>
	<clipPath id="SVGID_6_">
		<use xlink:href="#SVGID_5_"  overflow="visible"/>
	</clipPath>
	<path clip-path="url(#SVGID_6_)" fill="#BADAFF" d="M185.984,5.764c-0.077-2.748-2.288-4.956-5.036-5.03l-27.118-0.731
		c-3.552-0.096-6.449,2.825-6.321,6.377l0.577,16.063c0.069,1.931,1.644,3.466,3.576,3.487l12.559,0.133l4.342,5.242h2.625
		l0.463-4.416l0.52-0.741l8.657,0.092c3.13,0.033,5.66-2.541,5.572-5.67L185.984,5.764z"/>
	<path clip-path="url(#SVGID_6_)" fill="#FAFEFF" d="M150.135,6.38l0.576,16.064c0.07,1.931,1.645,3.466,3.576,3.487l29.165,0.31
		c3.13,0.034,5.662-2.541,5.574-5.67L188.61,5.764c-0.078-2.747-2.288-4.956-5.037-5.03l-27.118-0.731
		C152.904-0.093,150.007,2.829,150.135,6.38"/>
	<path clip-path="url(#SVGID_6_)" fill="#A8D9FF" d="M177.711,9.855c0-2.167-1.756-3.922-3.922-3.922
		c-1.577,0-2.933,0.933-3.557,2.276c-0.622-1.343-1.979-2.276-3.555-2.276c-2.167,0-3.923,1.755-3.923,3.922
		c0,0.622,0.148,1.207,0.406,1.729l-0.003,0.001l0.033,0.06c0.024,0.048,0.05,0.097,0.077,0.144l6.965,8.519l6.917-8.432h-0.002
		C177.502,11.286,177.711,10.595,177.711,9.855"/>
</g>
<polygon fill="#BADAFF" points="293.831,147.592 297.414,147.592 296.727,140.756 "/>
<g>
	<defs>
		<rect id="SVGID_7_" x="254.31" y="98.082" width="66.424" height="49.51"/>
	</defs>
	<clipPath id="SVGID_8_">
		<use xlink:href="#SVGID_7_"  overflow="visible"/>
	</clipPath>
	<path clip-path="url(#SVGID_8_)" fill="#BADAFF" d="M316.907,125.951l-5.341-21.867c-0.991-4.057-4.979-6.634-9.087-5.867
		l-40.526,7.563c-5.308,0.991-8.679,6.256-7.357,11.491l5.982,23.685c0.589,2.334,2.603,3.926,4.893,4.108l0.032,0.042h3.843
		l-0.064-0.574l16.424-3.345l8.125,6.404l3.713-8.813l12.892-2.625C315.098,135.205,318.037,130.572,316.907,125.951"/>
	<path clip-path="url(#SVGID_8_)" fill="#FAFEFF" d="M258.18,117.271l5.981,23.685c0.719,2.846,3.549,4.625,6.426,4.04l43.433-8.842
		c4.662-0.949,7.6-5.582,6.472-10.203l-5.341-21.867c-0.992-4.058-4.981-6.634-9.087-5.868l-40.527,7.564
		C260.229,106.771,256.858,112.036,258.18,117.271"/>
	<polygon clip-path="url(#SVGID_8_)" fill="#A8D9FF" points="288.848,108.49 291.964,126.161 303.012,114.71 	"/>
	<path clip-path="url(#SVGID_8_)" fill="#A8D9FF" d="M290.79,113.748c0,0-8.977,1.264-11.152,6.077
		c-1.613,3.562-2.938,7.312,2.625,14.875c0,0-1.46-9.191,3.242-12.045c3.999-2.426,6.685-2.051,6.685-2.051L290.79,113.748z"/>
</g>
</svg>
