<svg version="1.1" xmlns="http://www.w3.org/2000/svg" xmlns:xlink="http://www.w3.org/1999/xlink" x="0px" y="0px" width="50px" height="50px" viewBox="0 0 50 50">
<g>
	<path fill-rule="evenodd" clip-rule="evenodd" fill="#51C332" d="M35.911,17.483c-2.938-0.144-5.505,0.337-7.675,1.155
		c-2.151,0.813-4.021,1.936-5.544,3.341c-1.493,1.378-2.801,3.162-3.575,5.31c-0.386,1.069-0.66,2.393-0.668,3.773
		c-0.008,1.362,0.23,2.663,0.596,3.811c-2.448,0.11-4.526-0.186-6.446-0.687c-0.28-0.073-0.555-0.16-0.831-0.181
		c-0.616-0.046-1.072,0.258-1.498,0.506c-1.123,0.653-2.088,1.227-3.232,1.878c-0.213,0.121-0.499,0.295-0.74,0.271
		c-0.264-0.026-0.502-0.247-0.524-0.541c-0.012-0.163,0.061-0.335,0.108-0.506c0.231-0.824,0.433-1.602,0.65-2.42
		c0.088-0.33,0.217-0.67,0.217-0.993c0-0.792-0.636-1.04-1.12-1.427c-2.019-1.611-3.729-3.664-4.749-6.32
		c-0.572-1.491-0.999-3.324-0.849-5.399c0.144-1.98,0.604-3.526,1.337-4.984c1.414-2.813,3.563-4.886,6.193-6.464
		c1.991-1.195,4.25-2.067,6.952-2.528c0.681-0.116,1.386-0.189,2.148-0.235c2.813-0.166,5.522,0.2,7.675,0.867
		c1.988,0.616,3.755,1.488,5.255,2.528c1.533,1.063,2.868,2.337,3.954,3.828C34.637,13.564,35.491,15.347,35.911,17.483z
		 M12.039,12.607c-0.752,0.001-1.353,0.354-1.716,0.723c-0.409,0.415-0.751,1.073-0.687,1.914c0.079,1.021,0.937,2.09,2.167,2.186
		c0.936,0.071,1.56-0.288,2.005-0.759c0.369-0.391,0.649-0.924,0.649-1.644c0-0.833-0.335-1.247-0.704-1.715
		C13.305,12.942,12.821,12.607,12.039,12.607z M24.083,12.607c-1.045,0.001-1.792,0.643-2.148,1.337
		c-0.292,0.568-0.342,1.373-0.091,1.986c0.305,0.742,1.051,1.425,2.005,1.499c0.761,0.059,1.271-0.167,1.697-0.488
		c0.542-0.407,0.957-1.021,0.957-1.914c0-0.836-0.334-1.246-0.704-1.715C25.35,12.941,24.865,12.607,24.083,12.607z"/>
	<path fill-rule="evenodd" clip-rule="evenodd" fill="#51C332" d="M34.466,18.657c1.779-0.085,3.479,0.181,4.894,0.542
		c1.454,0.37,2.696,0.891,3.883,1.534c1.736,0.943,3.227,2.204,4.406,3.738c1.16,1.511,2.087,3.385,2.311,5.833
		c0.233,2.542-0.566,4.837-1.534,6.447c-0.844,1.401-1.897,2.558-3.196,3.575c-0.355,0.278-0.825,0.528-0.867,1.083
		c-0.02,0.259,0.129,0.647,0.199,0.903c0.179,0.657,0.268,1.078,0.451,1.751c0.07,0.261,0.229,0.642,0.108,0.886
		c-0.06,0.118-0.185,0.206-0.307,0.234c-0.247,0.058-0.447-0.072-0.633-0.181c-0.919-0.539-1.736-0.994-2.672-1.535
		c-0.363-0.21-0.698-0.478-1.192-0.487c-0.271-0.005-0.537,0.091-0.794,0.163c-1.713,0.475-3.837,0.716-6.014,0.541
		c-2.272-0.182-4.326-0.755-6.013-1.589c-1.679-0.83-3.202-1.849-4.424-3.178c-1.225-1.332-2.216-2.842-2.781-4.821
		c-0.299-1.045-0.456-2.198-0.397-3.377c0.116-2.331,0.893-4.198,1.914-5.689c1.554-2.266,3.646-3.894,6.356-5.038
		c0.455-0.191,0.908-0.371,1.391-0.523c0.48-0.151,0.977-0.281,1.498-0.397c1.028-0.229,2.111-0.415,3.377-0.415
		C34.442,18.657,34.454,18.657,34.466,18.657z M28.525,25.717c-0.306,0.29-0.571,0.727-0.614,1.247
		c-0.051,0.612,0.137,1.08,0.379,1.408c0.179,0.24,0.527,0.525,0.813,0.65c1.307,0.567,2.719-0.388,2.816-1.68
		c0.052-0.677-0.241-1.22-0.523-1.536c-0.328-0.365-0.897-0.649-1.535-0.632C29.236,25.192,28.781,25.475,28.525,25.717z
		 M39.287,25.266c-0.819,0.284-1.587,1.237-1.281,2.419c0.234,0.913,1.189,1.695,2.365,1.463c0.795-0.157,1.521-0.878,1.589-1.823
		c0.031-0.443-0.061-0.799-0.234-1.12c-0.306-0.562-0.985-1.052-1.824-1.03C39.687,25.181,39.458,25.207,39.287,25.266z"/>
</g>
</svg>
