<svg version="1.1" xmlns="http://www.w3.org/2000/svg" xmlns:xlink="http://www.w3.org/1999/xlink" x="0px" y="0px" width="50px" height="50px" viewBox="0 0 50 50">
<g>
	<path fill="#189D0E" d="M0,50c1.439-4.353,2.91-8.67,4.397-12.976C2.329,33.486,0.95,29.576,0.837,24.57
		c-0.112-4.968,1.5-9.291,3.456-12.559c2.956-4.938,7.417-8.73,13.351-10.742c2.081-0.704,4.445-1.125,7.016-1.245
		c4.577-0.215,8.621,0.994,11.729,2.543c3.21,1.6,5.798,3.762,7.905,6.279c3.129,3.736,5.67,8.755,5.707,15.516
		c0.035,6.684-2.543,11.79-5.707,15.569c-2.19,2.615-4.784,4.719-7.905,6.278c-3.291,1.645-7.128,2.753-11.676,2.543
		c-3.983-0.183-7.085-1.081-10-2.439c-0.353-0.163-0.903-0.557-1.204-0.568c-0.413-0.019-1.176,0.35-1.729,0.519
		C7.796,47.477,3.982,48.817,0,50z M12.146,42.009c0.586-0.188,1.465-0.666,1.991-0.624c0.258,0.021,0.584,0.362,0.942,0.571
		c2.35,1.372,4.788,2.2,8.011,2.595c3.966,0.485,7.477-0.192,10.419-1.451c5.489-2.355,9.714-6.861,11.518-12.768
		c1.007-3.299,1.11-7.338,0.315-10.639c-0.789-3.268-2.31-5.974-4.032-8.095c-1.774-2.185-4.023-4.097-6.755-5.397
		c-2.788-1.327-6.066-2.313-10.051-2.127c-8.126,0.38-14.082,5.133-17.174,10.794c-1.68,3.076-2.657,6.956-2.303,11.417
		c0.327,4.133,1.929,7.251,3.821,10.066c-0.899,2.447-1.697,4.995-2.565,7.474C8.325,43.219,10.116,42.652,12.146,42.009z"/>
	<path fill="#189D0E" d="M16.963,12.533c0.193-0.022,1.72-0.071,2.147,0.104c0.316,0.13,0.689,1.011,0.837,1.401
		c0.442,1.152,0.785,2.082,1.205,3.271c0.165,0.465,0.578,1.232,0.575,1.607c-0.005,0.712-0.655,1.333-1.047,1.765
		c-0.456,0.503-1.162,0.964-1.204,1.557c-0.033,0.479,0.417,1.138,0.682,1.557c1.719,2.733,3.864,4.763,6.911,6.28
		c0.42,0.21,1.021,0.693,1.518,0.674c0.736-0.027,1.297-1.063,1.729-1.557c0.292-0.336,1.146-1.541,1.623-1.607
		c0.505-0.07,1.24,0.383,1.727,0.622c1.09,0.534,1.927,0.996,3.039,1.608c0.417,0.23,1.267,0.563,1.411,0.883
		c0.415,0.919-0.404,2.951-0.68,3.373c-0.876,1.342-3.194,2.517-5.394,2.543c-1.134,0.014-2.502-0.553-3.666-0.986
		c-3.583-1.334-5.97-2.754-8.532-5.293c-1.61-1.598-2.829-3.146-4.084-5.138c-1.147-1.819-2.605-3.949-2.618-6.59
		c-0.011-2.234,0.774-3.654,1.884-4.878C15.531,13.169,16.024,12.638,16.963,12.533z"/>
</g>
</svg>
